# xmcd
#
# Track frame offsets: 
#        183
#        21808
#        34670
#        47595
#        63293
#        80278
#        94743
#        106915
#        124705
#        145783
#        162248
#        174838
#        187418
#        201043
#        219048
#        234233
#
# Disc length: 3292 seconds
#
# Revision: 0
# Processed by: cddbd v1.5.2PL0 Copyright (c) Steve Scherf et al.
# Submitted via: ExactAudioCopy v1.3
#
DISCID=c70cda10
DTITLE=Jonny Hill - Die großen Erfolge
DYEAR=1993
DGENRE=Country
TTITLE0=Ruf Teddybär Eins-Vier
TTITLE1=Es sind nur Erinnerungen ( I Recall a Gipsy Woman )
TTITLE2=Mein Lied für dich ( Annie´s Song )
TTITLE3=Pak doch deinen Koffer wieder aus
TTITLE4=Addio, Santa Lucia
TTITLE5=Ein Glas Wein und noch eins
TTITLE6=Freunde
TTITLE7=Träume die hat jeder
TTITLE8=Papillion
TTITLE9=Dann gehst du allein nach Haus
TTITLE10=Heut geht es an Bord
TTITLE11=Ein Köm und ein Bier und ein Schifferklavier
TTITLE12=Unser Kapitän der kann jodeln
TTITLE13=Seemann, wann kommst du wieder ?
TTITLE14=Mein Junge, komm wiede rnach Haus
TTITLE15=Die letzte Reise
EXTD=
EXTT0=
EXTT1=
EXTT2=
EXTT3=
EXTT4=
EXTT5=
EXTT6=
EXTT7=
EXTT8=
EXTT9=
EXTT10=
EXTT11=
EXTT12=
EXTT13=
EXTT14=
EXTT15=
PLAYORDER=
